<?xml version="1.0" encoding="utf-8"?>
<!-- Generator: Adobe Illustrator 19.0.0, SVG Export Plug-In . SVG Version: 6.00 Build 0)  -->
<svg version="1.1" id="Layer_1" xmlns="http://www.w3.org/2000/svg" xmlns:xlink="http://www.w3.org/1999/xlink" x="0px" y="0px"
	 viewBox="56.7 14.7 708.7 240.7" style="enable-background:new 56.7 14.7 708.7 240.7;" xml:space="preserve">
<style type="text/css">
	.st0{fill:#EAEAEA;}
	.st1{fill:none;stroke:#EAEAEA;stroke-width:17;stroke-miterlimit:10;}
</style>
<g>
	<path class="st0" d="M331,52c0.6,0,0.9,0,0.9,0c2.2,0,4.1,0.9,5.7,2.7c1.6,1.6,2.4,3.5,2.4,5.7s-0.8,4.1-2.4,5.7
		c-1.6,1.7-3.5,2.6-5.9,2.7c0,0,0,0-0.1,0h-0.1h-36.8c-1.7,0-3.1,0.6-4.5,1.7c-1.6,1.3-2.5,3.1-2.5,5.3c0,1.9,0.7,3.6,2,4.9
		c1.3,1.3,3,2.1,4.9,2.1h3.6c-0.8,0.7-1.5,1.5-2.1,2.4c-1.1,1.8-1.8,3.8-1.8,6.1c0,1.5,0.3,2.9,0.9,4.3c0.7,1.6,1.7,3,3,4.1h-4.5
		c-4-0.2-7.7-1.2-11.1-3.2s-6.1-4.7-8.2-8c-2.4-3.8-3.6-8.1-3.6-12.7c0-5.6,1.8-10.5,5.2-14.8c2.2-2.7,4.9-4.9,8.1-6.5
		c3.2-1.7,6.5-2.5,10.1-2.5h0.4H331z M317.7,82.9c4.5,0.2,8.5,1.7,12.1,4.3c2.5,1.6,4.5,3.6,6.1,6.1c2.8,4,4.1,8.5,4.1,13.4
		c0,3-0.6,5.9-1.8,8.9c-1.2,3.1-3,5.8-5.5,8.3c-2.2,2.1-4.9,3.8-8,5c-2.7,1-5.6,1.6-8.6,1.6h-35.7c-1.1,0-1.8-0.1-2.2-0.1
		c-2-0.3-3.8-1.3-5.2-2.9c-1.3-1.6-2-3.4-2-5.4c0-2.1,0.7-3.9,2-5.5c1.6-1.8,3.5-2.8,5.8-2.9c0.3,0,0.6,0,0.8,0h36.5
		c1.7,0,3.1-0.6,4.4-1.5c1.8-1.5,2.7-3.2,2.7-5.5c0-2-0.7-3.7-2.1-5c-1.3-1.3-2.9-2-4.8-2h-3.6c1.1-1,2-2.1,2.7-3.5
		c0.8-1.6,1.1-3.3,1.1-4.9c0-1.5-0.2-2.8-0.8-4c-0.7-1.8-1.7-3.1-3-4.3h5V82.9z M305.4,82.8h0.1c0.6,0,1,0,1.5,0.1
		c2.2,0.3,3.9,1.5,5.3,3.2c1.1,1.5,1.7,3.1,1.7,5c0,2.1-0.7,4-2.1,5.7c-1.1,1.2-2.5,2-4.1,2.5c-0.7,0.1-1.3,0.2-2.2,0.2
		c-0.6,0-1.1-0.1-1.8-0.1c-2.2-0.6-3.9-1.8-5.3-3.7c-0.8-1.5-1.2-3-1.2-4.6c0-1.8,0.4-3.3,1.3-4.6c1.3-2.1,3.2-3.4,5.7-3.7
		C304.6,82.8,304.9,82.8,305.4,82.8z"/>
	<path class="st0" d="M369.5,52c-1.2,1-2.2,2.2-2.9,3.8c-0.6,1.5-0.9,3-0.9,4.6v8.4v14h34.4h0.1c2.6,0,4.7,0.9,6.4,2.9
		c1.3,1.6,2,3.4,2,5.5c0,2.6-1,4.7-3,6.5c-1.6,1.2-3.4,1.9-5.4,1.9h-0.1h-34.4v3.4c0,2.6-1.1,4.7-3.1,6.3c-1.6,1.1-3.3,1.8-5.3,1.8
		c-2.9,0-5.2-1.2-6.8-3.5c-0.9-1.3-1.5-2.9-1.6-4.5V60.4v-0.1c0-2,0.7-3.8,2-5.3c1.7-2,3.8-3,6.3-3h0.1C357.3,52,369.5,52,369.5,52z
		 M365.7,113.6h43.5c0.2,0,0.4,0,0.7,0c2.2,0,4.1,0.9,5.7,2.6c1.6,1.6,2.4,3.6,2.4,5.8s-0.8,4.3-2.5,5.9c-1.6,1.6-3.6,2.5-5.9,2.5
		c-0.1,0-0.2,0-0.4,0h-51.5c0,0-0.2,0-0.4,0c-2.2,0-4.3-0.9-6.1-2.5c-1.6-1.7-2.4-3.7-2.4-5.9v-0.2v-12c2.2,2.5,5,3.8,8.4,3.8
		L365.7,113.6L365.7,113.6z M409.4,52h0.1h0.1c2.2,0,4,0.8,5.5,2.2c1.9,1.6,2.8,3.7,2.8,6.2c0,2.1-0.7,4-2.2,5.6
		c-1.6,1.8-3.5,2.7-5.9,2.8c-0.1,0-0.2,0-0.4,0h-32.9c-2.6,0-4.7-1.1-6.4-3.1c-1.1-1.6-1.8-3.4-1.8-5.3c0-1.8,0.6-3.4,1.5-4.8
		c1.6-2.4,3.8-3.6,6.5-3.6L409.4,52L409.4,52z"/>
	<path class="st0" d="M487,58.3c-2.1,0-4.1,0.7-5.9,1.9c-1.8,1.3-3.1,3-4,5.2c-0.4,1.2-0.8,2.6-0.8,4c0,0.7,0.1,1.5,0.2,2.1
		c-3.2-1.8-6.8-2.7-10.6-2.7c-3.4,0-6.6,0.7-9.7,2.2c-3,1.5-5.6,3.5-7.7,6.2c-3.1,4-4.8,8.7-4.8,14c0,5.7,2,10.8,5.8,15.1
		c4.5,4.8,10,7.3,16.5,7.3c6.1,0,11.1-2.1,15.4-6.2c0.1-0.1,0.2-0.2,0.2-0.2c0.1-0.1,0.2-0.1,0.2-0.1c1.6-1.6,3.5-2.2,5.7-2.2
		c2.4,0,4.4,0.8,5.9,2.5c1.7,1.6,2.5,3.5,2.5,5.9c0,2.2-0.8,4.3-2.6,5.9c0,0.1-0.1,0.2-0.1,0.2c-3.6,3.4-7.7,6.1-12.4,8.1
		c-4.7,1.9-9.6,2.9-14.8,2.9c-6.3,0-12.1-1.5-17.7-4.3c-5.5-2.9-10-6.6-13.7-11.5c-5.2-6.9-7.7-14.8-7.7-23.4
		c0-10.5,3.7-19.6,10.9-27.1c3.7-3.8,8-6.8,12.8-9c4.9-2.2,10.1-3.1,15.5-3.1C473.6,52,480.6,54,487,58.3z M487.4,60.8
		c2.7,0,4.9,1,6.5,3.1c0.2,0.1,0.3,0.3,0.6,0.7c0.2,0.2,0.3,0.4,0.3,0.6c0.7,1.2,1,2.6,1,4c0,2.2-0.8,4.3-2.5,5.9
		c-1.6,1.6-3.6,2.5-5.9,2.5c-2.2,0-4.1-0.8-5.8-2.4c-0.6-0.7-1-1.2-1.5-1.8c-0.8-1.3-1.2-2.7-1.2-4.3c0-0.9,0.2-1.8,0.4-2.7
		c0.7-1.8,1.7-3.3,3.3-4.3c1.5-1,3-1.5,4.7-1.5h0.1V60.8z"/>
	<path class="st0" d="M544.1,52L544.1,52c0.9,0,1.4,0,1.9,0c6.6,0.3,12.1,3,16.5,8c4,4.5,6.1,9.7,6.1,15.8c0,6.3-2.1,11.8-6.6,16.5
		c-1.8,1.9-3.9,3.5-6.4,4.8l11.7,14.1c-0.6-0.1-1.2-0.1-1.9-0.1c-2.9,0-5.4,0.9-7.5,2.9c-2.2,2-3.5,4.7-3.6,7.8l-17.6-21.4l-0.1-0.1
		c-0.1-0.2-0.2-0.4-0.4-0.7h-14.6v22.3v0.1c0,2.2-0.7,4.1-2.2,5.7c-1.6,1.8-3.7,2.7-6.2,2.7c-2.2,0-4.3-0.9-6.1-2.5
		c-1.6-1.7-2.4-3.7-2.4-5.9v-0.2V78.9c1,1.1,2.2,2,3.6,2.7c1.6,0.7,3.1,1.1,4.8,1.1l3.9,0.1h4.5h22.9c0.4,0,0.7,0,0.8,0
		c1.5-0.1,2.7-0.6,3.8-1.3c1.9-1.5,2.8-3.4,2.8-5.7c0-2.1-0.8-3.9-2.5-5.3c-1.1-1.1-2.6-1.7-4.3-1.7c-0.1,0-0.3,0-0.6,0h-23v3.3
		c0,2.4-0.9,4.4-2.8,6.1c-1.6,1.3-3.4,2.1-5.6,2.1c-2.5,0-4.6-1-6.3-2.8c-1.3-1.6-2-3.3-2.1-5.2V60.4v-0.1c0-2,0.7-3.8,2-5.4
		c1.7-2,3.8-2.9,6.3-2.9h0.1L544.1,52L544.1,52z M570.6,115.5c0.4,0.3,1,0.9,1.6,1.8c1,1.3,1.5,2.9,1.5,4.7c0,2.6-1,4.7-3.1,6.5
		c-1.5,1.2-3.3,1.9-5.3,1.9c-0.2,0-0.6,0-0.9,0c-1.6-0.2-3-0.9-4.4-1.9c-1-0.9-1.8-1.8-2.4-2.8c-0.4-1.1-0.8-2.4-0.8-3.7
		c0-2.5,0.9-4.5,2.5-6.1c1.7-1.6,3.7-2.4,5.9-2.4C567.3,113.6,569,114.2,570.6,115.5z"/>
	<path class="st0" d="M603.1,52c-1.2,1-2.2,2.2-2.9,3.8c-0.6,1.5-0.9,3-0.9,4.6v8.4v14h34.4h0.1c2.6,0,4.7,0.9,6.4,2.9
		c1.3,1.6,2,3.4,2,5.5c0,2.6-1,4.7-3,6.5c-1.6,1.2-3.4,1.9-5.4,1.9h-0.1h-34.4v3.4c0,2.6-1.1,4.7-3.1,6.3c-1.6,1.1-3.2,1.8-5.3,1.8
		c-2.9,0-5.2-1.2-6.8-3.5c-0.9-1.3-1.5-2.9-1.6-4.5V60.4v-0.1c0-2,0.7-3.8,2-5.3c1.7-2,3.8-3,6.3-3h0.1C590.9,52,603.1,52,603.1,52z
		 M599.3,113.6h43.5c0.2,0,0.4,0,0.7,0c2.2,0,4.1,0.9,5.7,2.6c1.6,1.6,2.4,3.6,2.4,5.8s-0.8,4.3-2.5,5.9c-1.6,1.6-3.6,2.5-5.9,2.5
		c-0.1,0-0.2,0-0.4,0h-51.3c0,0-0.2,0-0.4,0c-2.2,0-4.3-0.9-6.1-2.5c-1.6-1.7-2.4-3.7-2.4-5.9v-0.2v-12c2.2,2.5,5,3.8,8.4,3.8
		L599.3,113.6L599.3,113.6z M643,52h0.1h0.1c2.2,0,4,0.8,5.5,2.2c1.9,1.6,2.8,3.7,2.8,6.2c0,2.1-0.7,4-2.2,5.6
		c-1.6,1.8-3.5,2.7-5.9,2.8c-0.1,0-0.2,0-0.4,0h-32.9c-2.6,0-4.7-1.1-6.4-3.1c-1.1-1.6-1.8-3.4-1.8-5.3c0-1.8,0.6-3.4,1.5-4.8
		c1.6-2.4,3.8-3.6,6.5-3.6L643,52L643,52z"/>
	<path class="st0" d="M699.8,52c2.2,0,4,0.7,5.5,2.2c1.2,1.1,2,2.5,2.5,4c0.2,0.7,0.2,1.6,0.2,2.6v61.1v0.1c0,2.2-0.7,4.1-2.2,5.7
		c-1.6,1.8-3.7,2.7-6.2,2.7c-2.2,0-4.3-0.9-6.1-2.5c-1.6-1.7-2.4-3.7-2.4-5.9v-0.2v-53h-22.3h-0.1c-2.2,0-4.1-0.8-5.7-2.2
		c-1.8-1.7-2.7-3.7-2.7-6.2c0-2.4,0.9-4.4,2.5-6.1c1.7-1.6,3.7-2.4,5.9-2.4h0.2L699.8,52L699.8,52z M730.4,52L730.4,52
		c2.1,0,3.9,0.7,5.5,2c2,1.6,2.9,3.7,2.9,6.3v0.2c0,2.5-0.9,4.5-2.8,6.2c-1.6,1.3-3.4,2.1-5.6,2.1h-19.8v-8.4c0-2-0.4-3.8-1.5-5.5
		c-0.7-1.1-1.5-2.1-2.5-2.9H730.4z"/>
</g>
<g>
	<path class="st0" d="M329.7,140.8c0.6,0,0.9,0,0.9,0c2.2,0,4,0.9,5.6,2.7c1.6,1.6,2.4,3.4,2.4,5.6c0,2.2-0.8,4-2.4,5.6
		c-1.6,1.7-3.4,2.6-5.8,2.7c0,0,0,0-0.1,0h-0.1h-36.3c-1.7,0-3.1,0.6-4.4,1.7c-1.6,1.3-2.5,3.1-2.5,5.2c0,1.9,0.7,3.5,2,4.8
		c1.3,1.3,3,2.1,4.8,2.1h3.5c-0.8,0.7-1.5,1.5-2.1,2.4c-1.1,1.8-1.8,3.7-1.8,6c0,1.5,0.3,2.9,0.9,4.2c0.7,1.6,1.7,3,3,4H293
		c-3.9-0.2-7.6-1.2-10.9-3.2c-3.3-2-6-4.6-8.1-7.9c-2.4-3.7-3.5-8-3.5-12.5c0-5.5,1.8-10.3,5.1-14.6c2.2-2.7,4.8-4.8,8-6.4
		c3.3-1.7,6.4-2.5,10-2.5h0.4H329.7z M316.5,171.2c4.4,0.2,8.4,1.7,11.9,4.2c2.5,1.6,4.4,3.5,6,6c2.8,3.9,4,8.4,4,13.2
		c0,3-0.6,5.8-1.8,8.8c-1.2,3.1-3,5.7-5.4,8.2c-2.2,2.1-4.8,3.7-7.9,4.9c-2.7,1-5.5,1.6-8.5,1.6h-35.2c-1.1,0-1.8-0.1-2.2-0.1
		c-2-0.3-3.7-1.3-5.1-2.9c-1.3-1.6-2-3.3-2-5.3c0-2.1,0.7-3.8,2-5.4c1.6-1.8,3.4-2.8,5.7-2.9c0.3,0,0.6,0,0.8,0H315
		c1.7,0,3.1-0.6,4.3-1.5c1.8-1.5,2.7-3.2,2.7-5.4c0-2-0.7-3.6-2.1-4.9c-1.3-1.3-2.9-2-4.7-2h-3.5c1.1-1,2-2.1,2.7-3.4
		c0.8-1.6,1.1-3.3,1.1-4.8c0-1.5-0.2-2.8-0.8-3.9c-0.7-1.8-1.7-3.1-3-4.2L316.5,171.2L316.5,171.2z M304.4,171.1L304.4,171.1
		c0.7,0,1.1,0,1.6,0.1c2.2,0.3,3.8,1.5,5.2,3.2c1.1,1.5,1.7,3.1,1.7,4.9c0,2.1-0.7,3.9-2.1,5.6c-1.1,1.2-2.5,2-4,2.5
		c-0.7,0.1-1.3,0.2-2.2,0.2c-0.6,0-1.1-0.1-1.8-0.1c-2.2-0.6-3.8-1.8-5.2-3.6c-0.8-1.5-1.2-3-1.2-4.5c0-1.8,0.4-3.3,1.3-4.5
		c1.3-2.1,3.3-3.3,5.6-3.6C303.6,171.1,303.9,171.1,304.4,171.1z"/>
	<path class="st0" d="M367.5,140.8c-1.2,1-2.2,2.2-2.9,3.7c-0.6,1.5-0.9,3-0.9,4.5v8.3v13.8h33.9h0.1c2.6,0,4.6,0.9,6.3,2.9
		c1.3,1.6,2,3.3,2,5.4c0,2.6-1,4.6-3,6.4c-1.6,1.2-3.3,1.9-5.3,1.9h-0.1h-33.9v3.3c0,2.6-1.1,4.6-3.1,6.2c-1.6,1.1-3.3,1.8-5.2,1.8
		c-2.9,0-5.1-1.2-6.7-3.4c-0.9-1.3-1.5-2.9-1.6-4.4v-42.1V149c0-2,0.7-3.7,2-5.2c1.7-2,3.7-3,6.2-3h0.1
		C355.5,140.8,367.5,140.8,367.5,140.8z M363.8,201.5h42.9c0.2,0,0.4,0,0.7,0c2.2,0,4,0.9,5.6,2.6c1.6,1.6,2.4,3.5,2.4,5.7
		s-0.8,4.2-2.5,5.8c-1.6,1.6-3.5,2.5-5.8,2.5c-0.1,0-0.2,0-0.4,0h-50.5c0,0-0.2,0-0.4,0c-2.2,0-4.2-0.9-6-2.5
		c-1.6-1.7-2.4-3.6-2.4-5.8v-0.2v-11.8c2.2,2.5,4.9,3.7,8.3,3.7L363.8,201.5L363.8,201.5z M406.9,140.8L406.9,140.8h0.2
		c2.2,0,3.9,0.8,5.4,2.2c1.9,1.6,2.8,3.6,2.8,6.1c0,2.1-0.7,3.9-2.2,5.5c-1.6,1.8-3.4,2.7-5.8,2.8c-0.1,0-0.2,0-0.4,0h-32.4
		c-2.6,0-4.6-1.1-6.3-3.1c-1.1-1.6-1.8-3.3-1.8-5.2c0-1.8,0.6-3.3,1.5-4.7c1.6-2.4,3.7-3.5,6.4-3.5L406.9,140.8L406.9,140.8z"/>
	<path class="st0" d="M462.8,140.8L462.8,140.8c0.9,0,1.4,0,1.9,0c6.5,0.3,11.9,3,16.3,7.9c3.9,4.4,6,9.6,6,15.6
		c0,6.2-2.1,11.6-6.5,16.3c-1.8,1.9-3.8,3.4-6.3,4.7l11.5,13.9c-0.6-0.1-1.2-0.1-1.9-0.1c-2.9,0-5.3,0.9-7.4,2.9
		c-2.2,2-3.4,4.6-3.5,7.7l-17.3-21.1l-0.1-0.1c-0.1-0.2-0.2-0.4-0.4-0.7h-14.4v22v0.1c0,2.2-0.7,4-2.2,5.6c-1.6,1.8-3.6,2.7-6.1,2.7
		c-2.2,0-4.2-0.9-6-2.5c-1.6-1.7-2.4-3.6-2.4-5.8v-0.2v-42.3c1,1.1,2.2,2,3.5,2.7c1.6,0.7,3.1,1.1,4.7,1.1l3.8,0.1h4.4h22.6
		c0.4,0,0.7,0,0.8,0c1.5-0.1,2.7-0.6,3.7-1.3c1.9-1.5,2.8-3.3,2.8-5.6c0-2.1-0.8-3.8-2.5-5.2c-1.1-1.1-2.6-1.7-4.2-1.7
		c-0.1,0-0.3,0-0.6,0h-22.7v3.3c0,2.4-0.9,4.3-2.8,6c-1.6,1.3-3.3,2.1-5.5,2.1c-2.5,0-4.5-1-6.2-2.8c-1.3-1.6-2-3.3-2.1-5.1v-11.7
		V149c0-2,0.7-3.7,2-5.3c1.7-2,3.7-2.9,6.2-2.9h0.1L462.8,140.8L462.8,140.8z M489,203.3c0.4,0.3,1,0.9,1.6,1.8
		c1,1.3,1.5,2.9,1.5,4.6c0,2.6-1,4.6-3.1,6.4c-1.5,1.2-3.3,1.9-5.2,1.9c-0.2,0-0.6,0-0.9,0c-1.6-0.2-3-0.9-4.3-1.9
		c-1-0.9-1.8-1.8-2.4-2.8c-0.4-1.1-0.8-2.4-0.8-3.6c0-2.5,0.9-4.4,2.5-6c1.7-1.6,3.6-2.4,5.8-2.4C485.7,201.5,487.5,202.1,489,203.3
		z"/>
	<path class="st0" d="M540.2,217.6c-0.8-0.3-1.6-0.8-2.4-1.2c-0.9-0.9-1.7-1.8-2.4-2.9l-33.9-60.5c-0.7-1.3-1-2.7-1-3.9
		c0-2.4,0.9-4.3,2.5-5.8c1.7-1.7,3.6-2.5,5.8-2.5c1.6,0,3,0.3,4.3,1.2c1.3,0.8,2.5,1.9,3.1,3.2l28.2,50.2c0.6,0.9,1.2,1.8,1.9,2.6
		c0.7,0.6,1.5,1.1,2.1,1.6c0.2,0,0.3,0.1,0.3,0.2c1.3,0.7,2.7,1,4,1.2c0.4,0,0.8,0,1.1,0c1.3,0,2.6-0.2,3.7-0.7l-7.4,13.1
		c-0.7,1.3-1.6,2.4-2.8,3.3c-1.3,0.9-2.9,1.5-4.6,1.5C542.1,218,541.1,217.8,540.2,217.6z M554.1,198.5c-1.5,0-2.9-0.4-4.2-1.1
		c-1.9-1.1-3.3-2.8-3.8-4.8c-0.2-0.9-0.3-1.7-0.3-2.4c0-1.3,0.3-2.5,0.8-3.5l23.2-41.5c0.8-1.3,1.8-2.5,3.1-3.2
		c1.3-0.9,2.8-1.2,4.3-1.2c2.4,0,4.3,0.8,6,2.6c1.6,1.6,2.4,3.5,2.4,5.7c0,1.3-0.3,2.7-1.1,3.9l-23.2,41.5c-1.5,2.6-3.6,3.8-6.7,3.9
		C554.3,198.5,554.2,198.5,554.1,198.5z"/>
	<path class="st0" d="M614.3,140.8c-1.2,1-2.2,2.2-2.9,3.7c-0.6,1.5-0.9,3-0.9,4.5v8.3v13.8h33.9h0.1c2.6,0,4.6,0.9,6.3,2.9
		c1.3,1.6,2,3.3,2,5.4c0,2.6-1,4.6-3,6.4c-1.6,1.2-3.3,1.9-5.3,1.9h-0.1h-33.9v3.3c0,2.6-1.1,4.6-3.1,6.2c-1.6,1.1-3.3,1.8-5.2,1.8
		c-2.9,0-5.1-1.2-6.7-3.4c-0.9-1.3-1.5-2.9-1.6-4.4v-42.1V149c0-2,0.7-3.7,2-5.2c1.7-2,3.7-3,6.2-3h0.1
		C602.2,140.8,614.3,140.8,614.3,140.8z M610.5,201.5h42.9c0.2,0,0.4,0,0.7,0c2.2,0,4,0.9,5.6,2.6c1.6,1.6,2.4,3.5,2.4,5.7
		s-0.8,4.2-2.5,5.8c-1.6,1.6-3.5,2.5-5.8,2.5c-0.1,0-0.2,0-0.4,0h-50.6c0,0-0.2,0-0.4,0c-2.2,0-4.2-0.9-6-2.5
		c-1.6-1.7-2.4-3.6-2.4-5.8v-0.2v-11.8c2.2,2.5,4.9,3.7,8.3,3.7L610.5,201.5L610.5,201.5z M653.6,140.8L653.6,140.8h0.2
		c2.2,0,3.9,0.8,5.4,2.2c1.9,1.6,2.8,3.6,2.8,6.1c0,2.1-0.7,3.9-2.2,5.5c-1.6,1.8-3.4,2.7-5.8,2.8c-0.1,0-0.2,0-0.4,0h-32.4
		c-2.6,0-4.6-1.1-6.3-3.1c-1.1-1.6-1.8-3.3-1.8-5.2c0-1.8,0.6-3.3,1.5-4.7c1.6-2.4,3.7-3.5,6.4-3.5L653.6,140.8L653.6,140.8z"/>
	<path class="st0" d="M709.5,140.8L709.5,140.8c0.9,0,1.4,0,1.9,0c6.5,0.3,11.9,3,16.3,7.9c3.9,4.4,6,9.6,6,15.6
		c0,6.2-2.1,11.6-6.5,16.3c-1.8,1.9-3.8,3.4-6.3,4.7l11.5,13.9c-0.6-0.1-1.2-0.1-1.9-0.1c-2.9,0-5.3,0.9-7.4,2.9
		c-2.2,2-3.4,4.6-3.5,7.7l-17.3-21.1l-0.1-0.1c-0.1-0.2-0.2-0.4-0.4-0.7h-14.4v22v0.1c0,2.2-0.7,4-2.2,5.6c-1.6,1.8-3.6,2.7-6.1,2.7
		c-2.2,0-4.2-0.9-6-2.5c-1.6-1.7-2.4-3.6-2.4-5.8v-0.2v-42.3c1,1.1,2.2,2,3.5,2.7c1.6,0.7,3.1,1.1,4.7,1.1l3.8,0.1h4.4h22.6
		c0.4,0,0.7,0,0.8,0c1.5-0.1,2.7-0.6,3.7-1.3c1.9-1.5,2.8-3.3,2.8-5.6c0-2.1-0.8-3.8-2.5-5.2c-1.1-1.1-2.6-1.7-4.2-1.7
		c-0.1,0-0.3,0-0.6,0h-22.7v3.3c0,2.4-0.9,4.3-2.8,6c-1.6,1.3-3.3,2.1-5.5,2.1c-2.5,0-4.5-1-6.2-2.8c-1.3-1.6-2-3.3-2.1-5.1v-11.7
		V149c0-2,0.7-3.7,2-5.3c1.7-2,3.7-2.9,6.2-2.9h0.1L709.5,140.8L709.5,140.8z M735.7,203.3c0.4,0.3,1,0.9,1.6,1.8
		c1,1.3,1.5,2.9,1.5,4.6c0,2.6-1,4.6-3.1,6.4c-1.5,1.2-3.3,1.9-5.2,1.9c-0.2,0-0.6,0-0.9,0c-1.6-0.2-3-0.9-4.3-1.9
		c-1-0.9-1.8-1.8-2.4-2.8c-0.4-1.1-0.8-2.4-0.8-3.6c0-2.5,0.9-4.4,2.5-6c1.7-1.6,3.6-2.4,5.8-2.4
		C732.4,201.5,734.2,202.1,735.7,203.3z"/>
</g>
<rect x="83.1" y="127.4" class="st1" width="119.5" height="71.1"/>
<g>
	<path class="st1" d="M101.8,126.3v-55c0-3.3,2.7-6,6-6h70.1c3.3,0,6,2.7,6,6v55"/>
</g>
<circle class="st0" cx="142.9" cy="158.1" r="10.5"/>
<path class="st0" d="M146.3,179.2h-6.9c-1.2,0-2.2-1-2.2-2.2v-15.6c0-1.2,1-2.2,2.2-2.2h6.9c1.2,0,2.2,1,2.2,2.2V177
	C148.5,178.2,147.5,179.2,146.3,179.2z"/>
</svg>
