<?xml version="1.0" encoding="utf-8"?>
<!-- Generator: Adobe Illustrator 19.0.0, SVG Export Plug-In . SVG Version: 6.00 Build 0)  -->
<svg version="1.1" id="Layer_1" xmlns="http://www.w3.org/2000/svg" xmlns:xlink="http://www.w3.org/1999/xlink" x="0px" y="0px"
	 viewBox="0 0 1000 150" style="enable-background:new 0 0 1000 150;" xml:space="preserve">
<style type="text/css">
	.st0{fill:#EAEAEA;}
</style>
<g id="XMLID_28_">
	<path id="XMLID_29_" class="st0" d="M126.1,26.7c2.3,0.4,4.2,1.6,5.7,3.3c1.9,2,2.7,4.3,2.7,7.2c0,0.1,0,0.4,0,0.7v23.2
		c-1.4-1.7-3.2-2.9-5.2-3.7c-1.7-0.9-3.6-1.1-5.6-1.1c-2.3,0-4.6,0.4-6.6,1.6c-1,0.6-2.4,1.6-4.3,3.3c-1.7,1.6-2.7,2.6-3,2.9
		L86.8,84.6c0,0-0.1,0.1-0.3,0.1c0,0,0,0,0,0.1c-0.9,0.6-1.7,1.1-2.7,1.6c-1.3,0.6-2.7,0.9-4.2,0.9c-1.7,0-3.3-0.4-4.9-1.3
		c-0.7-0.4-1.4-0.9-2.3-1.4L50,64.5c-0.1-0.3-0.9-1-2.3-2.1c-1.3-1.3-2.1-2-3-2.6c-1.1-1-2.3-1.7-3.4-2.1c-1.7-0.9-3.7-1.3-5.7-1.3
		c-2.3,0-4.6,0.6-6.7,1.7c-1.4,0.9-2.9,1.9-4,3.3V37.6c0-0.6,0-0.9,0-1c0.1-1.7,0.6-3.2,1.3-4.4c0.9-1.4,1.6-2.6,2.7-3.4
		c1.9-1.4,3.9-2.1,6-2.1c0.3-0.1,0.4-0.1,0.6-0.1c2.1,0,4.2,0.6,6,1.7c0.9,0.6,1.7,1.3,2.7,2.3l35.5,31.8l36.1-32.4
		c0.3-0.3,0.6-0.4,0.7-0.6c0.9-0.9,1.9-1.4,2.9-1.9c0.9-0.4,1.9-0.7,2.7-0.9c0.6-0.1,1-0.1,1.4-0.1h0.4
		C124.6,26.4,125.3,26.4,126.1,26.7z M42.4,62.1c2.6,2,3.9,4.7,3.9,7.9v45.8v0.1c0,2.9-0.9,5.3-2.9,7.3c-2,2.3-4.7,3.4-7.9,3.4
		c-2.9,0-5.4-1.1-7.7-3.2c-2-2.1-3-4.7-3-7.6v-0.3V70c0.1-2.9,1.1-5.3,3.2-7.2c2.1-2.1,4.7-3.2,7.6-3.2
		C38.1,59.7,40.4,60.4,42.4,62.1z M131.6,62.9c1.9,1.9,2.9,4.2,2.9,6.7v46.1v0.1c0,2.9-0.9,5.3-2.9,7.3c-2,2.3-4.7,3.4-7.9,3.4
		c-3,0-5.6-1.1-7.7-3.2c-2-2.1-3-4.7-3-7.6v-0.3V69.8c0-3,1.1-5.4,3.3-7.4c2.1-2,4.6-2.9,7.4-2.9C126.9,59.5,129.6,60.7,131.6,62.9z
		"/>
	<path id="XMLID_33_" class="st0" d="M231.1,29.6c2.1,2,3.2,4.6,3.2,7.6c0,1.3-0.1,2.6-0.7,3.9c-0.3,0.9-1.3,2.3-2.9,4.2l-28.2,33.5
		c-0.3,0.3-0.7,0.9-1.3,1.4c-0.6,0.6-0.7,1-1,1.3c-1,1.1-1.9,2.1-2.6,3c-0.9,0.7-1.9,1.4-3,2c-1.4,0.6-2.9,1-4.4,1c-2.6,0-5-1-7-2.7
		c-0.4-0.4-1.3-1.3-2.4-2.6l-31.1-36.8c-1.4-2-2.4-3.3-2.9-4.2c-0.4-1.4-0.7-2.7-0.7-4c0-3,1.1-5.6,3.2-7.6c2.1-2.1,4.7-3.2,7.6-3.2
		c2,0,3.9,0.4,5.6,1.6c1.3,0.7,2.7,2.1,4.2,4.2l23.6,27.9L213.7,32c1.6-2,3-3.4,4.2-4.2c1.7-1,3.6-1.4,5.6-1.4
		C226.5,26.4,229,27.4,231.1,29.6z M189.9,90.9c3.7-0.1,7.3-1.9,10.9-5.2v30.1v0.1c0,2.7-0.9,5.2-2.9,7.3c-2,2.3-4.7,3.4-7.9,3.4
		c-3,0-5.6-1.1-7.7-3.3c-2-2-3-4.6-3-7.4v-0.3V85.7C182.9,89,186.5,90.7,189.9,90.9z"/>
	<path id="XMLID_36_" class="st0" d="M358.1,26.4c0.7,0,1.1,0,1.1,0c2.9,0,5.3,1.1,7.3,3.4c2,2,3,4.4,3,7.3s-1,5.3-3,7.3
		c-2,2.1-4.4,3.3-7.6,3.4c0,0,0,0-0.1,0h-0.1h-47c-2.1,0-4,0.7-5.7,2.1c-2,1.7-3.2,4-3.2,6.7c0,2.4,0.9,4.6,2.6,6.3
		c1.7,1.7,3.9,2.7,6.3,2.7h4.6c-1,0.9-1.9,1.9-2.7,3c-1.4,2.3-2.3,4.9-2.3,7.7c0,1.9,0.4,3.7,1.1,5.4c0.9,2,2.1,3.9,3.9,5.3h-5.7
		c-5.2-0.3-9.9-1.6-14.2-4.2c-4.3-2.6-7.7-6-10.5-10.2c-3-4.9-4.6-10.3-4.6-16.2c0-7.2,2.3-13.5,6.6-18.9c2.9-3.4,6.3-6.3,10.3-8.3
		c4.2-2.1,8.3-3.2,12.9-3.2h0.6H358.1z M341.1,66c5.7,0.3,10.9,2.1,15.5,5.4c3.2,2,5.7,4.6,7.7,7.7c3.6,5.2,5.3,10.9,5.3,17.2
		c0,3.9-0.7,7.6-2.3,11.3c-1.6,4-3.9,7.4-7,10.6c-2.9,2.7-6.3,4.9-10.2,6.4c-3.4,1.3-7.2,2-11,2h-45.7c-1.4,0-2.3-0.1-2.9-0.1
		c-2.6-0.4-4.9-1.7-6.6-3.7c-1.7-2-2.6-4.3-2.6-6.9c0-2.7,0.9-5,2.6-7c2-2.3,4.4-3.6,7.4-3.7c0.4,0,0.7,0,1,0h46.7
		c2.1,0,4-0.7,5.6-1.9c2.3-1.9,3.4-4.2,3.4-7c0-2.6-0.9-4.7-2.7-6.4c-1.7-1.7-3.7-2.6-6.2-2.6h-4.6c1.4-1.3,2.6-2.7,3.4-4.4
		c1-2,1.4-4.2,1.4-6.3c0-1.9-0.3-3.6-1-5.2c-0.9-2.3-2.1-4-3.9-5.4H341.1z M325.3,65.8h0.1c0.7,0,1.3,0,1.9,0.1
		c2.9,0.4,5,1.9,6.7,4.2c1.4,1.9,2.1,4,2.1,6.4c0,2.7-0.9,5.2-2.7,7.3c-1.4,1.6-3.2,2.6-5.3,3.2c-0.9,0.1-1.7,0.3-2.9,0.3
		c-0.7,0-1.4-0.1-2.3-0.1c-2.9-0.7-5-2.3-6.7-4.7c-1-1.9-1.6-3.9-1.6-5.9c0-2.3,0.6-4.2,1.7-5.9c1.7-2.7,4.2-4.3,7.3-4.7
		C324.3,65.8,324.7,65.8,325.3,65.8z"/>
	<path id="XMLID_40_" class="st0" d="M407.2,26.4c-1.6,1.3-2.9,2.9-3.7,4.9c-0.7,1.9-1.1,3.9-1.1,5.9v10.7v17.9h44h0.1
		c3.3,0,6,1.1,8.2,3.7c1.7,2,2.6,4.3,2.6,7c0,3.3-1.3,6-3.9,8.3c-2,1.6-4.3,2.4-6.9,2.4h-0.1h-44v4.3c0,3.3-1.4,6-4,8
		c-2,1.4-4.2,2.3-6.7,2.3c-3.7,0-6.6-1.6-8.7-4.4c-1.1-1.7-1.9-3.7-2-5.7V37.2V37c0-2.6,0.9-4.9,2.6-6.7c2.1-2.6,4.9-3.9,8-3.9h0.1
		H407.2z M402.4,105.2h55.6c0.3,0,0.6,0,0.9,0c2.9,0,5.3,1.1,7.3,3.3c2,2,3,4.6,3,7.4c0,2.9-1,5.4-3.2,7.6c-2,2-4.6,3.2-7.6,3.2
		c-0.1,0-0.3,0-0.6,0h-65.6c0,0-0.3,0-0.6,0c-2.9,0-5.4-1.1-7.7-3.2c-2-2.1-3-4.7-3-7.6v-0.3v-15.3c2.9,3.2,6.4,4.9,10.7,4.9H402.4z
		 M458.2,26.4h0.1h0.1c2.9,0,5.2,1,7,2.9c2.4,2,3.6,4.7,3.6,7.9c0,2.7-0.9,5.2-2.9,7.2c-2,2.3-4.4,3.4-7.6,3.6c-0.1,0-0.3,0-0.6,0
		H416c-3.3,0-6-1.4-8.2-4c-1.4-2-2.3-4.3-2.3-6.7c0-2.3,0.7-4.3,1.9-6.2c2-3,4.9-4.6,8.3-4.6H458.2z"/>
	<path id="XMLID_44_" class="st0" d="M557.5,34.4c-2.7,0-5.3,0.9-7.6,2.4c-2.3,1.7-4,3.9-5.2,6.6c-0.6,1.6-1,3.3-1,5.2
		c0,0.9,0.1,1.9,0.3,2.7c-4.2-2.3-8.7-3.4-13.6-3.4c-4.3,0-8.5,0.9-12.5,2.9c-3.9,1.9-7.2,4.4-9.9,7.9c-4,5.2-6.2,11.2-6.2,17.9
		c0,7.3,2.6,13.8,7.4,19.3c5.7,6.2,12.7,9.3,21.1,9.3c7.7,0,14.2-2.7,19.6-7.9c0.1-0.1,0.3-0.3,0.3-0.3c0.1-0.1,0.3-0.1,0.3-0.1
		c2-2,4.4-2.9,7.3-2.9c3,0,5.6,1,7.6,3.2c2.1,2,3.2,4.4,3.2,7.6c0,2.9-1,5.4-3.3,7.6c0,0.1-0.1,0.3-0.1,0.3
		c-4.6,4.3-9.9,7.7-15.9,10.3c-6,2.4-12.3,3.7-18.9,3.7c-8,0-15.5-1.9-22.6-5.4c-7-3.7-12.7-8.5-17.5-14.8
		c-6.6-8.9-9.9-18.9-9.9-29.9c0-13.5,4.7-25.1,13.9-34.7c4.7-4.9,10.2-8.7,16.3-11.5c6.3-2.9,12.9-4,19.8-4
		C540.3,26.4,549.3,29,557.5,34.4z M557.9,37.7c3.4,0,6.3,1.3,8.3,4c0.3,0.1,0.4,0.4,0.7,0.9c0.3,0.3,0.4,0.6,0.4,0.7
		c0.9,1.6,1.3,3.3,1.3,5.2c0,2.9-1,5.4-3.2,7.6c-2,2-4.6,3.2-7.6,3.2c-2.9,0-5.3-1-7.4-3c-0.7-0.9-1.3-1.6-1.9-2.3
		c-1-1.7-1.6-3.4-1.6-5.4c0-1.1,0.3-2.3,0.6-3.4c0.9-2.3,2.1-4.2,4.2-5.4c1.9-1.3,3.9-1.9,6-1.9H557.9z"/>
	<path id="XMLID_47_" class="st0" d="M630.4,26.4h0.1c1,0,1.7,0,2.3,0c8.5,0.4,15.5,3.9,21.1,10.2c5.2,5.7,7.7,12.5,7.7,20.2
		c0,8-2.7,15-8.5,21.1c-2.3,2.4-5,4.4-8.2,6.2l14.9,18c-0.7-0.1-1.6-0.1-2.4-0.1c-3.7,0-6.9,1.1-9.6,3.7c-2.9,2.6-4.4,6-4.6,10
		l-22.5-27.4l-0.1-0.1c-0.1-0.3-0.3-0.6-0.6-0.9h-18.6v28.5v0.1c0,2.9-0.9,5.3-2.9,7.3c-2,2.3-4.7,3.4-7.9,3.4
		c-2.9,0-5.4-1.1-7.7-3.2c-2-2.1-3-4.7-3-7.6v-0.3V60.8c1.3,1.4,2.9,2.6,4.6,3.4c2,0.9,4,1.4,6.2,1.4l5,0.1h5.7h29.2
		c0.6,0,0.9,0,1,0c1.9-0.1,3.4-0.7,4.9-1.7c2.4-1.9,3.6-4.3,3.6-7.3c0-2.7-1-5-3.2-6.7c-1.4-1.4-3.3-2.1-5.4-2.1c-0.1,0-0.4,0-0.7,0
		h-29.4v4.2c0,3-1.1,5.6-3.6,7.7c-2,1.7-4.3,2.7-7.2,2.7c-3.2,0-5.9-1.3-8-3.6c-1.7-2-2.6-4.2-2.7-6.6V37.2V37
		c0-2.6,0.9-4.9,2.6-6.9c2.1-2.6,4.9-3.7,8-3.7h0.1H630.4z M664.3,107.6c0.6,0.4,1.3,1.1,2,2.3c1.3,1.7,1.9,3.7,1.9,6
		c0,3.3-1.3,6-4,8.3c-1.9,1.6-4.2,2.4-6.7,2.4c-0.3,0-0.7,0-1.1,0c-2-0.3-3.9-1.1-5.6-2.4c-1.3-1.1-2.3-2.3-3-3.6
		c-0.6-1.4-1-3-1-4.7c0-3.2,1.1-5.7,3.2-7.7c2.1-2,4.7-3,7.6-3C660,105.2,662.3,105.9,664.3,107.6z"/>
	<path id="XMLID_50_" class="st0" d="M705.9,26.4c-1.6,1.3-2.9,2.9-3.7,4.9c-0.7,1.9-1.1,3.9-1.1,5.9v10.7v17.9h44h0.1
		c3.3,0,6,1.1,8.2,3.7c1.7,2,2.6,4.3,2.6,7c0,3.3-1.3,6-3.9,8.3c-2,1.6-4.3,2.4-6.9,2.4H745h-44v4.3c0,3.3-1.4,6-4,8
		c-2,1.4-4.2,2.3-6.7,2.3c-3.7,0-6.6-1.6-8.7-4.4c-1.1-1.7-1.9-3.7-2-5.7V37.2V37c0-2.6,0.9-4.9,2.6-6.7c2.1-2.6,4.9-3.9,8-3.9h0.1
		H705.9z M701,105.2h55.6c0.3,0,0.6,0,0.9,0c2.9,0,5.3,1.1,7.3,3.3c2,2,3,4.6,3,7.4c0,2.9-1,5.4-3.2,7.6c-2,2-4.6,3.2-7.6,3.2
		c-0.1,0-0.3,0-0.6,0h-65.6c0,0-0.3,0-0.6,0c-2.9,0-5.4-1.1-7.7-3.2c-2-2.1-3-4.7-3-7.6v-0.3v-15.3c2.9,3.2,6.4,4.9,10.7,4.9H701z
		 M756.9,26.4h0.1h0.1c2.9,0,5.2,1,7,2.9c2.4,2,3.6,4.7,3.6,7.9c0,2.7-0.9,5.2-2.9,7.2c-2,2.3-4.4,3.4-7.6,3.6c-0.1,0-0.3,0-0.6,0
		h-42.1c-3.3,0-6-1.4-8.2-4c-1.4-2-2.3-4.3-2.3-6.7c0-2.3,0.7-4.3,1.9-6.2c2-3,4.9-4.6,8.3-4.6H756.9z"/>
	<path id="XMLID_54_" class="st0" d="M829.5,26.4c2.9,0,5.2,0.9,7,2.9c1.6,1.4,2.6,3.2,3.2,5.2c0.3,0.9,0.3,2,0.3,3.3v78.1v0.1
		c0,2.9-0.9,5.3-2.9,7.3c-2,2.3-4.7,3.4-7.9,3.4c-2.9,0-5.4-1.1-7.7-3.2c-2-2.1-3-4.7-3-7.6v-0.3V47.9H790h-0.1
		c-2.9,0-5.3-1-7.3-2.9c-2.3-2.1-3.4-4.7-3.4-7.9c0-3,1.1-5.6,3.2-7.7c2.1-2,4.7-3,7.6-3h0.3H829.5z M868.6,26.4h0.1
		c2.6,0,4.9,0.9,6.9,2.6c2.6,2,3.7,4.7,3.7,8v0.3c0,3.2-1.1,5.7-3.6,7.9c-2,1.7-4.3,2.7-7.2,2.7h-25.4V37.2c0-2.6-0.6-4.9-1.9-7
		c-0.9-1.4-1.9-2.7-3.2-3.7H868.6z"/>
	<path id="XMLID_57_" class="st0" d="M967.6,26.4c0.7,0,1.1,0,1.1,0c2.9,0,5.3,1.1,7.3,3.4c2,2,3,4.4,3,7.3s-1,5.3-3,7.3
		c-2,2.1-4.4,3.3-7.6,3.4c0,0,0,0-0.1,0h-0.1h-47c-2.1,0-4,0.7-5.7,2.1c-2,1.7-3.2,4-3.2,6.7c0,2.4,0.9,4.6,2.6,6.3
		c1.7,1.7,3.9,2.7,6.3,2.7h4.6c-1,0.9-1.9,1.9-2.7,3c-1.4,2.3-2.3,4.9-2.3,7.7c0,1.9,0.4,3.7,1.1,5.4c0.9,2,2.1,3.9,3.9,5.3H920
		c-5.2-0.3-9.9-1.6-14.2-4.2c-4.3-2.6-7.7-6-10.5-10.2c-3-4.9-4.6-10.3-4.6-16.2c0-7.2,2.3-13.5,6.6-18.9c2.9-3.4,6.3-6.3,10.3-8.3
		c4.2-2.1,8.3-3.2,12.9-3.2h0.6H967.6z M950.5,66c5.7,0.3,10.9,2.1,15.5,5.4c3.2,2,5.7,4.6,7.7,7.7c3.6,5.2,5.3,10.9,5.3,17.2
		c0,3.9-0.7,7.6-2.3,11.3c-1.6,4-3.9,7.4-7,10.6c-2.9,2.7-6.3,4.9-10.2,6.4c-3.4,1.3-7.2,2-11,2h-45.7c-1.4,0-2.3-0.1-2.9-0.1
		c-2.6-0.4-4.9-1.7-6.6-3.7c-1.7-2-2.6-4.3-2.6-6.9c0-2.7,0.9-5,2.6-7c2-2.3,4.4-3.6,7.4-3.7c0.4,0,0.7,0,1,0h46.7
		c2.1,0,4-0.7,5.6-1.9c2.3-1.9,3.4-4.2,3.4-7c0-2.6-0.9-4.7-2.7-6.4c-1.7-1.7-3.7-2.6-6.2-2.6h-4.6c1.4-1.3,2.6-2.7,3.4-4.4
		c1-2,1.4-4.2,1.4-6.3c0-1.9-0.3-3.6-1-5.2c-0.9-2.3-2.1-4-3.9-5.4H950.5z M934.8,65.8h0.1c0.7,0,1.3,0,1.9,0.1
		c2.9,0.4,5,1.9,6.7,4.2c1.4,1.9,2.1,4,2.1,6.4c0,2.7-0.9,5.2-2.7,7.3c-1.4,1.6-3.2,2.6-5.3,3.2c-0.9,0.1-1.7,0.3-2.9,0.3
		c-0.7,0-1.4-0.1-2.3-0.1c-2.9-0.7-5-2.3-6.7-4.7c-1-1.9-1.6-3.9-1.6-5.9c0-2.3,0.6-4.2,1.7-5.9c1.7-2.7,4.2-4.3,7.3-4.7
		C933.8,65.8,934.2,65.8,934.8,65.8z"/>
</g>
</svg>
