<?xml version="1.0" encoding="utf-8"?>
<!-- Generator: Adobe Illustrator 19.0.0, SVG Export Plug-In . SVG Version: 6.00 Build 0)  -->
<svg version="1.1" id="Layer_1" xmlns="http://www.w3.org/2000/svg" xmlns:xlink="http://www.w3.org/1999/xlink" x="0px" y="0px"
	 viewBox="0 76 1000 150" style="enable-background:new 0 76 1000 150;" xml:space="preserve">
<style type="text/css">
	.st0{fill:#EAEAEA;}
</style>
<g>
	<path class="st0" d="M70,111.8c0.6,0,0.9,0,0.9,0c2.2,0,4.1,0.9,5.7,2.7c1.6,1.6,2.4,3.5,2.4,5.7s-0.8,4.1-2.4,5.7
		c-1.6,1.7-3.5,2.6-5.9,2.7c0,0,0,0-0.1,0h-0.1H33.7c-1.7,0-3.1,0.6-4.5,1.7c-1.6,1.3-2.5,3.1-2.5,5.3c0,1.9,0.7,3.6,2,4.9
		s3,2.1,4.9,2.1h3.6c-0.8,0.7-1.5,1.5-2.1,2.4c-1.1,1.8-1.8,3.8-1.8,6.1c0,1.5,0.3,2.9,0.9,4.3c0.7,1.6,1.7,3,3,4.1h-4.5
		c-4-0.2-7.7-1.2-11.1-3.2c-3.4-2-6.1-4.7-8.2-8c-2.4-3.8-3.6-8.1-3.6-12.7c0-5.6,1.8-10.5,5.2-14.8c2.2-2.7,4.9-4.9,8.1-6.5
		c3.2-1.7,6.5-2.5,10.1-2.5h0.4H70z M56.7,142.7c4.5,0.2,8.5,1.7,12.1,4.3c2.5,1.6,4.5,3.6,6.1,6.1c2.8,4,4.1,8.5,4.1,13.4
		c0,3-0.6,5.9-1.8,8.9c-1.2,3.1-3,5.8-5.5,8.3c-2.2,2.1-4.9,3.8-8,5c-2.7,1-5.6,1.6-8.6,1.6H19.4c-1.1,0-1.8-0.1-2.2-0.1
		c-2-0.3-3.8-1.3-5.2-2.9c-1.3-1.6-2-3.4-2-5.4c0-2.1,0.7-3.9,2-5.5c1.6-1.8,3.5-2.8,5.8-2.9c0.3,0,0.6,0,0.8,0h36.5
		c1.7,0,3.1-0.6,4.4-1.5c1.8-1.5,2.7-3.2,2.7-5.5c0-2-0.7-3.7-2.1-5c-1.3-1.3-2.9-2-4.8-2h-3.6c1.1-1,2-2.1,2.7-3.5
		c0.8-1.6,1.1-3.3,1.1-4.9c0-1.5-0.2-2.8-0.8-4c-0.7-1.8-1.7-3.1-3-4.3H56.7z M44.4,142.6h0.1c0.6,0,1,0,1.5,0.1
		c2.2,0.3,3.9,1.5,5.3,3.2c1.1,1.5,1.7,3.1,1.7,5c0,2.1-0.7,4-2.1,5.7c-1.1,1.2-2.5,2-4.1,2.5c-0.7,0.1-1.3,0.2-2.2,0.2
		c-0.6,0-1.1-0.1-1.8-0.1c-2.2-0.6-3.9-1.8-5.3-3.7c-0.8-1.5-1.2-3-1.2-4.6c0-1.8,0.4-3.3,1.3-4.6c1.3-2.1,3.2-3.4,5.7-3.7
		C43.6,142.6,43.9,142.6,44.4,142.6z"/>
	<path class="st0" d="M108.5,111.8c-1.2,1-2.2,2.2-2.9,3.8c-0.6,1.5-0.9,3-0.9,4.6v8.4v14h34.4h0.1c2.6,0,4.7,0.9,6.4,2.9
		c1.3,1.6,2,3.4,2,5.5c0,2.6-1,4.7-3,6.5c-1.6,1.2-3.4,1.9-5.4,1.9h-0.1h-34.4v3.4c0,2.6-1.1,4.7-3.1,6.3c-1.6,1.1-3.3,1.8-5.3,1.8
		c-2.9,0-5.2-1.2-6.8-3.5c-0.9-1.3-1.5-2.9-1.6-4.5v-42.7v-0.1c0-2,0.7-3.8,2-5.3c1.7-2,3.8-3,6.3-3h0.1H108.5z M104.7,173.4h43.5
		c0.2,0,0.4,0,0.7,0c2.2,0,4.1,0.9,5.7,2.6c1.6,1.6,2.4,3.6,2.4,5.8s-0.8,4.3-2.5,5.9c-1.6,1.6-3.6,2.5-5.9,2.5c-0.1,0-0.2,0-0.4,0
		H96.7c0,0-0.2,0-0.4,0c-2.2,0-4.3-0.9-6.1-2.5c-1.6-1.7-2.4-3.7-2.4-5.9v-0.2v-12c2.2,2.5,5,3.8,8.4,3.8H104.7z M148.4,111.8h0.1
		h0.1c2.2,0,4,0.8,5.5,2.2c1.9,1.6,2.8,3.7,2.8,6.2c0,2.1-0.7,4-2.2,5.6c-1.6,1.8-3.5,2.7-5.9,2.8c-0.1,0-0.2,0-0.4,0h-32.9
		c-2.6,0-4.7-1.1-6.4-3.1c-1.1-1.6-1.8-3.4-1.8-5.3c0-1.8,0.6-3.4,1.5-4.8c1.6-2.4,3.8-3.6,6.5-3.6H148.4z"/>
	<path class="st0" d="M226,118.1c-2.1,0-4.1,0.7-5.9,1.9c-1.8,1.3-3.1,3-4,5.2c-0.4,1.2-0.8,2.6-0.8,4c0,0.7,0.1,1.5,0.2,2.1
		c-3.2-1.8-6.8-2.7-10.6-2.7c-3.4,0-6.6,0.7-9.7,2.2c-3,1.5-5.6,3.5-7.7,6.2c-3.1,4-4.8,8.7-4.8,14c0,5.7,2,10.8,5.8,15.1
		c4.5,4.8,10,7.3,16.5,7.3c6.1,0,11.1-2.1,15.4-6.2c0.1-0.1,0.2-0.2,0.2-0.2c0.1-0.1,0.2-0.1,0.2-0.1c1.6-1.6,3.5-2.2,5.7-2.2
		c2.4,0,4.4,0.8,5.9,2.5c1.7,1.6,2.5,3.5,2.5,5.9c0,2.2-0.8,4.3-2.6,5.9c0,0.1-0.1,0.2-0.1,0.2c-3.6,3.4-7.7,6.1-12.4,8.1
		c-4.7,1.9-9.6,2.9-14.8,2.9c-6.3,0-12.1-1.5-17.7-4.3c-5.5-2.9-10-6.6-13.7-11.5c-5.2-6.9-7.7-14.8-7.7-23.4
		c0-10.5,3.7-19.6,10.9-27.1c3.7-3.8,8-6.8,12.8-9c4.9-2.2,10.1-3.1,15.5-3.1C212.6,111.8,219.6,113.8,226,118.1z M226.4,120.6
		c2.7,0,4.9,1,6.5,3.1c0.2,0.1,0.3,0.3,0.6,0.7c0.2,0.2,0.3,0.4,0.3,0.6c0.7,1.2,1,2.6,1,4c0,2.2-0.8,4.3-2.5,5.9
		c-1.6,1.6-3.6,2.5-5.9,2.5c-2.2,0-4.1-0.8-5.8-2.4c-0.6-0.7-1-1.2-1.5-1.8c-0.8-1.3-1.2-2.7-1.2-4.3c0-0.9,0.2-1.8,0.4-2.7
		c0.7-1.8,1.7-3.3,3.3-4.3c1.5-1,3-1.5,4.7-1.5H226.4z"/>
	<path class="st0" d="M283.1,111.8h0.1c0.8,0,1.3,0,1.8,0c6.6,0.3,12.1,3,16.5,8c4,4.5,6.1,9.7,6.1,15.8c0,6.3-2.1,11.8-6.6,16.5
		c-1.8,1.9-3.9,3.5-6.4,4.8l11.7,14.1c-0.6-0.1-1.2-0.1-1.9-0.1c-2.9,0-5.4,0.9-7.5,2.9c-2.2,2-3.5,4.7-3.6,7.8l-17.6-21.4l-0.1-0.1
		c-0.1-0.2-0.2-0.4-0.4-0.7h-14.6v22.3v0.1c0,2.2-0.7,4.1-2.2,5.7c-1.6,1.8-3.7,2.7-6.2,2.7c-2.2,0-4.3-0.9-6.1-2.5
		c-1.6-1.7-2.4-3.7-2.4-5.9v-0.2v-42.9c1,1.1,2.2,2,3.6,2.7c1.6,0.7,3.1,1.1,4.8,1.1l3.9,0.1h4.5h22.9c0.4,0,0.7,0,0.8,0
		c1.5-0.1,2.7-0.6,3.8-1.3c1.9-1.5,2.8-3.4,2.8-5.7c0-2.1-0.8-3.9-2.5-5.3c-1.1-1.1-2.6-1.7-4.3-1.7c-0.1,0-0.3,0-0.6,0h-23v3.3
		c0,2.4-0.9,4.4-2.8,6.1c-1.6,1.3-3.4,2.1-5.6,2.1c-2.5,0-4.6-1-6.3-2.8c-1.3-1.6-2-3.3-2.1-5.2v-11.9v-0.1c0-2,0.7-3.8,2-5.4
		c1.7-2,3.8-2.9,6.3-2.9h0.1H283.1z M309.6,175.3c0.4,0.3,1,0.9,1.6,1.8c1,1.3,1.5,2.9,1.5,4.7c0,2.6-1,4.7-3.1,6.5
		c-1.5,1.2-3.3,1.9-5.3,1.9c-0.2,0-0.6,0-0.9,0c-1.6-0.2-3-0.9-4.4-1.9c-1-0.9-1.8-1.8-2.4-2.8c-0.4-1.1-0.8-2.4-0.8-3.7
		c0-2.5,0.9-4.5,2.5-6.1c1.7-1.6,3.7-2.4,5.9-2.4C306.3,173.4,308,174,309.6,175.3z"/>
	<path class="st0" d="M342.1,111.8c-1.2,1-2.2,2.2-2.9,3.8c-0.6,1.5-0.9,3-0.9,4.6v8.4v14h34.4h0.1c2.6,0,4.7,0.9,6.4,2.9
		c1.3,1.6,2,3.4,2,5.5c0,2.6-1,4.7-3,6.5c-1.6,1.2-3.4,1.9-5.4,1.9h-0.1h-34.4v3.4c0,2.6-1.1,4.7-3.1,6.3c-1.6,1.1-3.2,1.8-5.3,1.8
		c-2.9,0-5.2-1.2-6.8-3.5c-0.9-1.3-1.5-2.9-1.6-4.5v-42.7v-0.1c0-2,0.7-3.8,2-5.3c1.7-2,3.8-3,6.3-3h0.1H342.1z M338.3,173.4h43.5
		c0.2,0,0.4,0,0.7,0c2.2,0,4.1,0.9,5.7,2.6c1.6,1.6,2.4,3.6,2.4,5.8s-0.8,4.3-2.5,5.9c-1.6,1.6-3.6,2.5-5.9,2.5c-0.1,0-0.2,0-0.4,0
		h-51.3c0,0-0.2,0-0.4,0c-2.2,0-4.3-0.9-6.1-2.5c-1.6-1.7-2.4-3.7-2.4-5.9v-0.2v-12c2.2,2.5,5,3.8,8.4,3.8H338.3z M382,111.8h0.1
		h0.1c2.2,0,4,0.8,5.5,2.2c1.9,1.6,2.8,3.7,2.8,6.2c0,2.1-0.7,4-2.2,5.6c-1.6,1.8-3.5,2.7-5.9,2.8c-0.1,0-0.2,0-0.4,0h-32.9
		c-2.6,0-4.7-1.1-6.4-3.1c-1.1-1.6-1.8-3.4-1.8-5.3c0-1.8,0.6-3.4,1.5-4.8c1.6-2.4,3.8-3.6,6.5-3.6H382z"/>
	<path class="st0" d="M438.8,111.8c2.2,0,4,0.7,5.5,2.2c1.2,1.1,2,2.5,2.5,4c0.2,0.7,0.2,1.6,0.2,2.6v61.1v0.1
		c0,2.2-0.7,4.1-2.2,5.7c-1.6,1.8-3.7,2.7-6.2,2.7c-2.2,0-4.3-0.9-6.1-2.5c-1.6-1.7-2.4-3.7-2.4-5.9v-0.2v-53h-22.3h-0.1
		c-2.2,0-4.1-0.8-5.7-2.2c-1.8-1.7-2.7-3.7-2.7-6.2c0-2.4,0.9-4.4,2.5-6.1c1.7-1.6,3.7-2.4,5.9-2.4h0.2H438.8z M469.4,111.8h0.1
		c2,0,3.8,0.7,5.4,2c2,1.6,2.9,3.7,2.9,6.3v0.2c0,2.5-0.9,4.5-2.8,6.2c-1.6,1.3-3.4,2.1-5.6,2.1h-19.8v-8.4c0-2-0.4-3.8-1.5-5.5
		c-0.7-1.1-1.5-2.1-2.5-2.9H469.4z"/>
	<path class="st0" d="M574.9,111.8c0.6,0,0.9,0,0.9,0c2.2,0,4.1,0.9,5.7,2.7c1.6,1.6,2.4,3.5,2.4,5.7s-0.8,4.1-2.4,5.7
		c-1.6,1.7-3.5,2.6-5.9,2.7c0,0,0,0-0.1,0h-0.1h-36.8c-1.7,0-3.1,0.6-4.5,1.7c-1.6,1.3-2.5,3.1-2.5,5.3c0,1.9,0.7,3.6,2,4.9
		s3,2.1,4.9,2.1h3.6c-0.8,0.7-1.5,1.5-2.1,2.4c-1.1,1.8-1.8,3.8-1.8,6.1c0,1.5,0.3,2.9,0.9,4.3c0.7,1.6,1.7,3,3,4.1h-4.5
		c-4-0.2-7.7-1.2-11.1-3.2c-3.4-2-6.1-4.7-8.2-8c-2.4-3.8-3.6-8.1-3.6-12.7c0-5.6,1.8-10.5,5.2-14.8c2.2-2.7,4.9-4.9,8.1-6.5
		c3.3-1.7,6.5-2.5,10.1-2.5h0.4H574.9z M561.5,142.7c4.5,0.2,8.5,1.7,12.1,4.3c2.5,1.6,4.5,3.6,6.1,6.1c2.8,4,4.1,8.5,4.1,13.4
		c0,3-0.6,5.9-1.8,8.9c-1.2,3.1-3,5.8-5.5,8.3c-2.2,2.1-4.9,3.8-8,5c-2.7,1-5.6,1.6-8.6,1.6h-35.7c-1.1,0-1.8-0.1-2.2-0.1
		c-2-0.3-3.8-1.3-5.2-2.9c-1.3-1.6-2-3.4-2-5.4c0-2.1,0.7-3.9,2-5.5c1.6-1.8,3.5-2.8,5.8-2.9c0.3,0,0.6,0,0.8,0H560
		c1.7,0,3.1-0.6,4.4-1.5c1.8-1.5,2.7-3.2,2.7-5.5c0-2-0.7-3.7-2.1-5c-1.3-1.3-2.9-2-4.8-2h-3.6c1.1-1,2-2.1,2.7-3.5
		c0.8-1.6,1.1-3.3,1.1-4.9c0-1.5-0.2-2.8-0.8-4c-0.7-1.8-1.7-3.1-3-4.3H561.5z M549.2,142.6h0.1c0.6,0,1,0,1.5,0.1
		c2.2,0.3,3.9,1.5,5.3,3.2c1.1,1.5,1.7,3.1,1.7,5c0,2.1-0.7,4-2.1,5.7c-1.1,1.2-2.5,2-4.1,2.5c-0.7,0.1-1.3,0.2-2.2,0.2
		c-0.6,0-1.1-0.1-1.8-0.1c-2.2-0.6-3.9-1.8-5.3-3.7c-0.8-1.5-1.2-3-1.2-4.6c0-1.8,0.4-3.3,1.3-4.6c1.3-2.1,3.3-3.4,5.7-3.7
		C548.4,142.6,548.7,142.6,549.2,142.6z"/>
	<path class="st0" d="M613.3,111.8c-1.2,1-2.2,2.2-2.9,3.8c-0.6,1.5-0.9,3-0.9,4.6v8.4v14h34.4h0.1c2.6,0,4.7,0.9,6.4,2.9
		c1.3,1.6,2,3.4,2,5.5c0,2.6-1,4.7-3,6.5c-1.6,1.2-3.4,1.9-5.4,1.9h-0.1h-34.4v3.4c0,2.6-1.1,4.7-3.1,6.3c-1.6,1.1-3.3,1.8-5.3,1.8
		c-2.9,0-5.2-1.2-6.8-3.5c-0.9-1.3-1.5-2.9-1.6-4.5v-42.7v-0.1c0-2,0.7-3.8,2-5.3c1.7-2,3.8-3,6.3-3h0.1H613.3z M609.5,173.4H653
		c0.2,0,0.4,0,0.7,0c2.2,0,4.1,0.9,5.7,2.6c1.6,1.6,2.4,3.6,2.4,5.8s-0.8,4.3-2.5,5.9c-1.6,1.6-3.6,2.5-5.9,2.5c-0.1,0-0.2,0-0.4,0
		h-51.3c0,0-0.2,0-0.4,0c-2.2,0-4.3-0.9-6.1-2.5c-1.6-1.7-2.4-3.7-2.4-5.9v-0.2v-12c2.2,2.5,5,3.8,8.4,3.8H609.5z M653.2,111.8h0.1
		h0.1c2.2,0,4,0.8,5.5,2.2c1.9,1.6,2.8,3.7,2.8,6.2c0,2.1-0.7,4-2.2,5.6c-1.6,1.8-3.5,2.7-5.9,2.8c-0.1,0-0.2,0-0.4,0h-32.9
		c-2.6,0-4.7-1.1-6.4-3.1c-1.1-1.6-1.8-3.4-1.8-5.3c0-1.8,0.6-3.4,1.5-4.8c1.6-2.4,3.8-3.6,6.5-3.6H653.2z"/>
	<path class="st0" d="M710,111.8h0.1c0.8,0,1.3,0,1.8,0c6.6,0.3,12.1,3,16.5,8c4,4.5,6.1,9.7,6.1,15.8c0,6.3-2.1,11.8-6.6,16.5
		c-1.8,1.9-3.9,3.5-6.4,4.8l11.7,14.1c-0.6-0.1-1.2-0.1-1.9-0.1c-2.9,0-5.4,0.9-7.5,2.9c-2.2,2-3.5,4.7-3.6,7.8l-17.6-21.4l-0.1-0.1
		c-0.1-0.2-0.2-0.4-0.4-0.7h-14.6v22.3v0.1c0,2.2-0.7,4.1-2.2,5.7c-1.6,1.8-3.7,2.7-6.2,2.7c-2.2,0-4.3-0.9-6.1-2.5
		c-1.6-1.7-2.4-3.7-2.4-5.9v-0.2v-42.9c1,1.1,2.2,2,3.6,2.7c1.6,0.7,3.1,1.1,4.8,1.1l3.9,0.1h4.5h22.9c0.4,0,0.7,0,0.8,0
		c1.5-0.1,2.7-0.6,3.8-1.3c1.9-1.5,2.8-3.4,2.8-5.7c0-2.1-0.8-3.9-2.5-5.3c-1.1-1.1-2.6-1.7-4.3-1.7c-0.1,0-0.3,0-0.6,0h-23v3.3
		c0,2.4-0.9,4.4-2.8,6.1c-1.6,1.3-3.4,2.1-5.6,2.1c-2.5,0-4.6-1-6.3-2.8c-1.3-1.6-2-3.3-2.1-5.2v-11.9v-0.1c0-2,0.7-3.8,2-5.4
		c1.7-2,3.8-2.9,6.3-2.9h0.1H710z M736.6,175.3c0.4,0.3,1,0.9,1.6,1.8c1,1.3,1.5,2.9,1.5,4.7c0,2.6-1,4.7-3.1,6.5
		c-1.5,1.2-3.3,1.9-5.3,1.9c-0.2,0-0.6,0-0.9,0c-1.6-0.2-3-0.9-4.4-1.9c-1-0.9-1.8-1.8-2.4-2.8c-0.4-1.1-0.8-2.4-0.8-3.7
		c0-2.5,0.9-4.5,2.5-6.1c1.7-1.6,3.7-2.4,5.9-2.4C733.2,173.4,735,174,736.6,175.3z"/>
	<path class="st0" d="M788.5,189.8c-0.8-0.3-1.6-0.8-2.4-1.2c-0.9-0.9-1.7-1.8-2.4-2.9l-34.4-61.4c-0.7-1.3-1-2.7-1-4
		c0-2.4,0.9-4.4,2.5-5.9c1.7-1.7,3.7-2.5,5.9-2.5c1.6,0,3,0.3,4.4,1.2c1.3,0.8,2.5,1.9,3.1,3.2l28.6,51c0.6,0.9,1.2,1.8,1.9,2.6
		c0.7,0.6,1.5,1.1,2.1,1.6c0.2,0,0.3,0.1,0.3,0.2c1.3,0.7,2.7,1,4.1,1.2c0.4,0,0.8,0,1.1,0c1.3,0,2.6-0.2,3.8-0.7l-7.5,13.3
		c-0.7,1.3-1.6,2.4-2.8,3.3c-1.3,0.9-2.9,1.5-4.7,1.5C790.5,190.2,789.4,190,788.5,189.8z M802.6,170.4c-1.5,0-2.9-0.4-4.3-1.1
		c-1.9-1.1-3.3-2.8-3.9-4.9c-0.2-0.9-0.3-1.7-0.3-2.4c0-1.3,0.3-2.5,0.8-3.6l23.5-42.1c0.8-1.3,1.8-2.5,3.1-3.2
		c1.3-0.9,2.8-1.2,4.4-1.2c2.4,0,4.4,0.8,6.1,2.6c1.6,1.6,2.4,3.6,2.4,5.8c0,1.3-0.3,2.7-1.1,4l-23.5,42.1c-1.5,2.6-3.7,3.9-6.8,4
		C802.8,170.4,802.7,170.4,802.6,170.4z"/>
	<path class="st0" d="M863.7,111.8c-1.2,1-2.2,2.2-2.9,3.8c-0.6,1.5-0.9,3-0.9,4.6v8.4v14h34.4h0.1c2.6,0,4.7,0.9,6.4,2.9
		c1.3,1.6,2,3.4,2,5.5c0,2.6-1,4.7-3,6.5c-1.6,1.2-3.4,1.9-5.4,1.9h-0.1h-34.4v3.4c0,2.6-1.1,4.7-3.1,6.3c-1.6,1.1-3.3,1.8-5.3,1.8
		c-2.9,0-5.2-1.2-6.8-3.5c-0.9-1.3-1.5-2.9-1.6-4.5v-42.7v-0.1c0-2,0.7-3.8,2-5.3c1.7-2,3.8-3,6.3-3h0.1H863.7z M859.9,173.4h43.5
		c0.2,0,0.4,0,0.7,0c2.2,0,4.1,0.9,5.7,2.6c1.6,1.6,2.4,3.6,2.4,5.8s-0.8,4.3-2.5,5.9c-1.6,1.6-3.6,2.5-5.9,2.5c-0.1,0-0.2,0-0.4,0
		H852c0,0-0.2,0-0.4,0c-2.2,0-4.3-0.9-6.1-2.5c-1.6-1.7-2.4-3.7-2.4-5.9v-0.2v-12c2.2,2.5,5,3.8,8.4,3.8H859.9z M903.6,111.8h0.1
		h0.1c2.2,0,4,0.8,5.5,2.2c1.9,1.6,2.8,3.7,2.8,6.2c0,2.1-0.7,4-2.2,5.6c-1.6,1.8-3.5,2.7-5.9,2.8c-0.1,0-0.2,0-0.4,0h-32.9
		c-2.6,0-4.7-1.1-6.4-3.1c-1.1-1.6-1.8-3.4-1.8-5.3c0-1.8,0.6-3.4,1.5-4.8c1.6-2.4,3.8-3.6,6.5-3.6H903.6z"/>
	<path class="st0" d="M960.4,111.8h0.1c0.8,0,1.3,0,1.8,0c6.6,0.3,12.1,3,16.5,8c4,4.5,6.1,9.7,6.1,15.8c0,6.3-2.1,11.8-6.6,16.5
		c-1.8,1.9-3.9,3.5-6.4,4.8l11.7,14.1c-0.6-0.1-1.2-0.1-1.9-0.1c-2.9,0-5.4,0.9-7.5,2.9c-2.2,2-3.5,4.7-3.6,7.8l-17.6-21.4l-0.1-0.1
		c-0.1-0.2-0.2-0.4-0.4-0.7h-14.6v22.3v0.1c0,2.2-0.7,4.1-2.2,5.7c-1.6,1.8-3.7,2.7-6.2,2.7c-2.2,0-4.3-0.9-6.1-2.5
		c-1.6-1.7-2.4-3.7-2.4-5.9v-0.2v-42.9c1,1.1,2.2,2,3.6,2.7c1.6,0.7,3.1,1.1,4.8,1.1l3.9,0.1h4.5h22.9c0.4,0,0.7,0,0.8,0
		c1.5-0.1,2.7-0.6,3.8-1.3c1.9-1.5,2.8-3.4,2.8-5.7c0-2.1-0.8-3.9-2.5-5.3c-1.1-1.1-2.6-1.7-4.3-1.7c-0.1,0-0.3,0-0.6,0h-23v3.3
		c0,2.4-0.9,4.4-2.8,6.1c-1.6,1.3-3.4,2.1-5.6,2.1c-2.5,0-4.6-1-6.3-2.8c-1.3-1.6-2-3.3-2.1-5.2v-11.9v-0.1c0-2,0.7-3.8,2-5.4
		c1.7-2,3.8-2.9,6.3-2.9h0.1H960.4z M987,175.3c0.4,0.3,1,0.9,1.6,1.8c1,1.3,1.5,2.9,1.5,4.7c0,2.6-1,4.7-3.1,6.5
		c-1.5,1.2-3.3,1.9-5.3,1.9c-0.2,0-0.6,0-0.9,0c-1.6-0.2-3-0.9-4.4-1.9c-1-0.9-1.8-1.8-2.4-2.8c-0.4-1.1-0.8-2.4-0.8-3.7
		c0-2.5,0.9-4.5,2.5-6.1c1.7-1.6,3.7-2.4,5.9-2.4C983.6,173.4,985.4,174,987,175.3z"/>
</g>
</svg>
